<svg
    width="16"
    height="16"
    viewBox="0 0 16 16"
    fill="none"
    xmlns="http://www.w3.org/2000/svg"
>
    <path
    d="M14.6565 7.14875L11.8377 9.60875L12.6821 13.2712C12.7268 13.4627 12.714 13.6631 12.6454 13.8474C12.5768 14.0316 12.4555 14.1916 12.2965 14.3072C12.1375 14.4229 11.9479 14.4891 11.7515 14.4976C11.555 14.5061 11.3605 14.4565 11.1921 14.355L7.99771 12.4175L4.81021 14.355C4.64182 14.4565 4.44724 14.5061 4.25082 14.4976C4.05439 14.4891 3.86483 14.4229 3.70583 14.3072C3.54683 14.1916 3.42545 14.0316 3.35686 13.8474C3.28828 13.6631 3.27553 13.4627 3.32021 13.2712L4.16333 9.6125L1.34396 7.14875C1.19484 7.02014 1.08701 6.85036 1.03399 6.66071C0.980978 6.47107 0.985134 6.26999 1.04594 6.08269C1.10675 5.89539 1.2215 5.73022 1.37581 5.60788C1.53011 5.48554 1.71711 5.41149 1.91333 5.395L5.62958 5.07312L7.08021 1.61312C7.15596 1.43157 7.28374 1.27649 7.44745 1.16741C7.61116 1.05833 7.80349 1.00012 8.00021 1.00012C8.19693 1.00012 8.38926 1.05833 8.55297 1.16741C8.71668 1.27649 8.84446 1.43157 8.92021 1.61312L10.3752 5.07312L14.0902 5.395C14.2864 5.41149 14.4734 5.48554 14.6277 5.60788C14.782 5.73022 14.8968 5.89539 14.9576 6.08269C15.0184 6.26999 15.0226 6.47107 14.9695 6.66071C14.9165 6.85036 14.8087 7.02014 14.6596 7.14875H14.6565Z"
    fill="#212121"
    />
</svg>